# 3ds Max Wavefront OBJ Exporter v0.97b - (c)2007 guruware
# File Created: 23.02.2015 21:16:41

mtllib lowpolyTeapot.mtl

#
# object Teapot001
#

v  100.1508 442.4767 -0.2311
v  69.7008 442.4767 74.3189
v  69.8673 460.6251 74.4853
v  100.3852 460.6251 -0.2311
v  75.0259 442.4767 79.6439
v  107.6508 442.4767 -0.2311
v  -4.8492 442.4767 104.7689
v  -4.8492 460.6251 105.0033
v  -4.8492 442.4767 112.2689
v  -81.9304 442.4767 74.3189
v  -79.8820 460.6251 74.4853
v  -84.7242 442.4767 79.6439
v  -109.8492 442.4767 -0.2311
v  -110.0835 460.6251 -0.2311
v  -117.3492 442.4767 -0.2311
v  -79.3991 442.4767 -74.7811
v  -79.5656 460.6251 -74.9475
v  -84.7242 442.4767 -80.1061
v  -4.8492 442.4767 -105.2311
v  -4.8492 460.6251 -105.4655
v  -4.8492 442.4767 -112.7311
v  69.7009 442.4767 -74.7811
v  69.8673 460.6251 -74.9475
v  75.0259 442.4767 -80.1061
v  93.3305 299.0174 97.9486
v  133.4321 299.0174 -0.2311
v  101.6509 165.9287 106.2689
v  145.1508 165.9287 -0.2311
v  -4.8492 299.0174 138.0502
v  -4.8492 165.9287 149.7689
v  -103.0288 299.0174 97.9486
v  -111.3492 165.9287 106.2689
v  -143.1304 299.0174 -0.2311
v  -154.8492 165.9287 -0.2311
v  -103.0288 299.0174 -98.4108
v  -111.3492 165.9287 -106.7311
v  -4.8492 299.0174 -138.5123
v  -4.8492 165.9287 -150.2311
v  93.3305 299.0174 -98.4108
v  101.6509 165.9287 -106.7311
v  88.3384 70.8654 92.9564
v  126.4008 70.8654 -0.2311
v  75.0259 27.6548 79.6439
v  107.6508 27.6548 -0.2311
v  -4.8492 70.8654 131.0189
v  -4.8492 27.6548 112.2689
v  -98.0367 70.8654 92.9564
v  -84.7242 27.6548 79.6439
v  -136.0992 70.8654 -0.2311
v  -117.3492 27.6548 -0.2311
v  -98.0367 70.8654 -93.4186
v  -84.7242 27.6548 -80.1061
v  -4.8492 70.8654 -131.4811
v  -4.8492 27.6548 -112.7311
v  88.3384 70.8654 -93.4186
v  75.0259 27.6548 -80.1061
v  63.5438 8.6421 68.1619
v  91.4790 8.6421 -0.2311
v  -4.8492 0.0000 -0.2311
v  -4.8492 8.6421 96.0970
v  -73.2421 8.6421 68.1619
v  -101.1773 8.6421 -0.2311
v  -73.2421 8.6421 -68.6241
v  -4.8492 8.6421 -96.5592
v  63.5438 8.6421 -68.6241
v  -124.8492 373.3397 -0.2311
v  -121.0992 394.0807 16.6439
v  -193.7554 386.3029 16.6439
v  -185.7867 368.1544 -0.2311
v  -218.5992 331.8575 16.6439
v  -207.3492 331.8575 -0.2311
v  -117.3492 414.8218 -0.2311
v  -201.7242 404.4513 -0.2311
v  -229.8492 331.8575 -0.2311
v  -121.0992 394.0807 -17.1061
v  -193.7554 386.3029 -17.1061
v  -218.5992 331.8575 -17.1061
v  -202.4273 231.1768 16.6439
v  -195.1617 248.8931 -0.2311
v  -151.0992 138.2740 16.6439
v  -209.6929 213.4604 -0.2311
v  -147.3492 110.6192 -0.2311
v  -202.4273 231.1768 -17.1061
v  -151.0992 138.2740 -17.1061
v  122.6508 262.7205 -0.2311
v  122.6508 186.6698 36.8939
v  185.4633 299.0174 25.3627
v  174.2133 331.8575 -0.2311
v  220.1508 442.4767 13.8314
v  197.6508 442.4767 -0.2311
v  122.6508 110.6192 -0.2311
v  196.7133 266.1773 -0.2311
v  242.6508 442.4767 -0.2311
v  122.6508 186.6698 -37.3561
v  185.4633 299.0174 -25.8248
v  220.1508 442.4767 -14.2936
v  229.6430 454.7917 11.0189
v  207.0258 452.8472 -0.2311
v  220.1508 442.4767 8.2064
v  205.1508 442.4767 -0.2311
v  252.2603 456.7361 -0.2311
v  235.1508 442.4767 -0.2311
v  229.6430 454.7917 -11.4811
v  220.1508 442.4767 -8.6686
v  12.4782 549.6390 17.0963
v  19.5259 549.6390 -0.2311
v  -4.8492 580.7506 -0.2311
v  5.8008 497.7863 10.4189
v  10.1508 497.7862 -0.2311
v  -4.8492 549.6390 24.1439
v  -4.8492 497.7862 14.7689
v  -22.1765 549.6390 17.0963
v  -15.4992 497.7863 10.4189
v  -29.2242 549.6390 -0.2311
v  -19.8492 497.7862 -0.2311
v  -22.1765 549.6390 -17.5584
v  -15.4992 497.7863 -10.8811
v  -4.8492 549.6390 -24.6061
v  -4.8492 497.7862 -15.2311
v  12.4782 549.6390 -17.5584
v  5.8008 497.7863 -10.8811
v  39.0821 470.1314 43.7002
v  57.0259 470.1314 -0.2311
v  64.3758 442.4767 68.9939
v  92.6508 442.4767 -0.2311
v  -4.8492 470.1314 61.6439
v  -4.8492 442.4767 97.2689
v  -48.7804 470.1314 43.7002
v  -74.0742 442.4767 68.9939
v  -66.7242 470.1314 -0.2311
v  -102.3492 442.4767 -0.2311
v  -48.7804 470.1314 -44.1623
v  -74.0742 442.4767 -69.4561
v  -4.8492 470.1314 -62.1061
v  -4.8492 442.4767 -97.7311
v  39.0821 470.1314 -44.1623
v  64.3758 442.4767 -69.4561
# 137 vertices

vn -0.9254 0.0294 -0.3780
vn 0.6843 0.6735 0.2795
vn -0.3780 0.0294 -0.9254
vn 0.2795 0.6735 0.6843
vn 0.3719 -0.0264 -0.9279
vn -0.2802 0.6702 0.6873
vn 0.9262 -0.1097 -0.3606
vn -0.6916 0.6653 0.2811
vn 0.9254 0.0294 0.3780
vn -0.6843 0.6735 -0.2795
vn 0.3780 0.0294 0.9254
vn -0.2795 0.6735 -0.6843
vn -0.3780 0.0294 0.9254
vn 0.2795 0.6735 -0.6843
vn -0.9254 0.0294 0.3780
vn 0.6843 0.6735 -0.2795
vn 0.8569 0.3785 0.3500
vn 0.9077 0.1965 0.3708
vn 0.3500 0.3785 0.8569
vn 0.3708 0.1965 0.9077
vn -0.3500 0.3785 0.8569
vn -0.3708 0.1965 0.9077
vn -0.8569 0.3785 0.3500
vn -0.9077 0.1965 0.3708
vn -0.8569 0.3785 -0.3500
vn -0.9077 0.1965 -0.3708
vn -0.3500 0.3785 -0.8569
vn -0.3708 0.1965 -0.9077
vn 0.3500 0.3785 -0.8569
vn 0.3708 0.1965 -0.9077
vn 0.8569 0.3785 -0.3500
vn 0.9077 0.1965 -0.3708
vn 0.8446 -0.4095 0.3450
vn 0.6587 -0.7026 0.2691
vn 0.3450 -0.4095 0.8446
vn 0.2691 -0.7026 0.6587
vn -0.3450 -0.4095 0.8446
vn -0.2691 -0.7026 0.6587
vn -0.8446 -0.4095 0.3450
vn -0.6587 -0.7026 0.2691
vn -0.8446 -0.4095 -0.3450
vn -0.6587 -0.7026 -0.2691
vn -0.3450 -0.4095 -0.8446
vn -0.2691 -0.7026 -0.6587
vn 0.3450 -0.4095 -0.8446
vn 0.2691 -0.7026 -0.6587
vn 0.8446 -0.4095 -0.3450
vn 0.6587 -0.7026 -0.2691
vn 0.4249 -0.8884 0.1736
vn 0.0365 -0.9992 0.0149
vn 0.1736 -0.8884 0.4249
vn 0.0149 -0.9992 0.0365
vn -0.1736 -0.8884 0.4249
vn -0.0149 -0.9992 0.0365
vn -0.4249 -0.8884 0.1736
vn -0.0365 -0.9992 0.0149
vn -0.4249 -0.8884 -0.1736
vn -0.0365 -0.9992 -0.0149
vn -0.1736 -0.8884 -0.4249
vn -0.0149 -0.9992 -0.0365
vn 0.1736 -0.8884 -0.4249
vn 0.0149 -0.9992 -0.0365
vn 0.4249 -0.8884 -0.1736
vn 0.0365 -0.9992 -0.0149
vn 0.0357 -0.9032 0.4278
vn 0.5510 -0.6927 0.4653
vn -0.0424 0.9026 0.4284
vn -0.6108 0.6260 0.4848
vn -0.0424 0.9026 -0.4284
vn -0.6108 0.6260 -0.4848
vn 0.0357 -0.9032 -0.4278
vn 0.5510 -0.6927 -0.4653
vn 0.8057 0.3058 0.5073
vn 0.5515 0.7064 0.4437
vn -0.7980 -0.3253 0.5073
vn -0.5116 -0.7303 0.4527
vn -0.7980 -0.3253 -0.5073
vn -0.5116 -0.7303 -0.4527
vn 0.8057 0.3058 -0.5073
vn 0.5515 0.7064 -0.4437
vn -0.4019 0.7124 0.5753
vn -0.6160 0.4207 0.6660
vn 0.5497 -0.6327 0.5455
vn 0.6539 -0.3457 0.6730
vn 0.5497 -0.6327 -0.5455
vn 0.6539 -0.3457 -0.6730
vn -0.4019 0.7124 -0.5753
vn -0.6160 0.4207 -0.6660
vn -0.3091 0.7922 0.5261
vn 0.4480 -0.2945 -0.8441
vn 0.4167 -0.5475 0.7256
vn -0.2797 0.8187 -0.5015
vn 0.4167 -0.5475 -0.7256
vn -0.2797 0.8187 0.5015
vn -0.3091 0.7922 -0.5261
vn 0.4480 -0.2945 0.8441
vn 0.4529 0.8723 0.1842
vn 0.8562 -0.3810 0.3488
vn 0.1842 0.8723 0.4529
vn 0.3488 -0.3810 0.8562
vn -0.1842 0.8723 0.4529
vn -0.3488 -0.3810 0.8562
vn -0.4529 0.8723 0.1842
vn -0.8562 -0.3810 0.3488
vn -0.4529 0.8723 -0.1842
vn -0.8562 -0.3810 -0.3488
vn -0.1842 0.8723 -0.4529
vn -0.3488 -0.3810 -0.8562
vn 0.1842 0.8723 -0.4529
vn 0.3488 -0.3810 -0.8562
vn 0.4529 0.8723 -0.1842
vn 0.8562 -0.3810 -0.3488
vn 0.2323 0.9680 0.0949
vn 0.2989 0.9465 0.1221
vn 0.0949 0.9680 0.2323
vn 0.1221 0.9465 0.2989
vn -0.0949 0.9680 0.2323
vn -0.1221 0.9465 0.2989
vn -0.2323 0.9680 0.0949
vn -0.2989 0.9465 0.1221
vn -0.2323 0.9680 -0.0949
vn -0.2989 0.9465 -0.1221
vn -0.0949 0.9680 -0.2323
vn -0.1221 0.9465 -0.2989
vn 0.0949 0.9680 -0.2323
vn 0.1221 0.9465 -0.2989
vn 0.2323 0.9680 -0.0949
vn 0.2989 0.9465 -0.1221
# 128 vertex normals

vt 2.0000 2.0000 0.0000
vt 1.5000 2.0000 0.0000
vt 1.5000 1.9500 0.0000
vt 2.0000 1.9500 0.0000
vt 1.5000 1.9000 0.0000
vt 2.0000 1.9000 0.0000
vt 1.0000 2.0000 0.0000
vt 1.0000 1.9500 0.0000
vt 1.0000 1.9000 0.0000
vt 0.5000 2.0000 0.0000
vt 0.5000 1.9500 0.0000
vt 0.5000 1.9000 0.0000
vt 0.0000 2.0000 0.0000
vt 0.0000 1.9500 0.0000
vt 0.0000 1.9000 0.0000
vt 1.5000 1.4500 0.0000
vt 2.0000 1.4500 0.0000
vt 1.5000 1.0000 0.0000
vt 2.0000 1.0000 0.0000
vt 1.0000 1.4500 0.0000
vt 1.0000 1.0000 0.0000
vt 0.5000 1.4500 0.0000
vt 0.5000 1.0000 0.0000
vt 0.0000 1.4500 0.0000
vt 0.0000 1.0000 0.0000
vt 1.5000 0.7000 0.0000
vt 2.0000 0.7000 0.0000
vt 1.5000 0.4000 0.0000
vt 2.0000 0.4000 0.0000
vt 1.0000 0.7000 0.0000
vt 1.0000 0.4000 0.0000
vt 0.5000 0.7000 0.0000
vt 0.5000 0.4000 0.0000
vt 0.0000 0.7000 0.0000
vt 0.0000 0.4000 0.0000
vt 1.5000 0.2000 0.0000
vt 2.0000 0.2000 0.0000
vt 1.5000 0.0000 0.0000
vt 1.0000 0.2000 0.0000
vt 1.0000 0.0000 0.0000
vt 0.5000 0.2000 0.0000
vt 0.5000 0.0000 0.0000
vt 0.0000 0.2000 0.0000
vt 0.0000 0.0000 0.0000
vt 0.7500 1.0000 0.0000
vt 0.7500 0.7500 0.0000
vt 1.0000 0.7500 0.0000
vt 0.7500 0.5000 0.0000
vt 1.0000 0.5000 0.0000
vt 0.5000 0.7500 0.0000
vt 0.5000 0.5000 0.0000
vt 0.2500 1.0000 0.0000
vt 0.2500 0.7500 0.0000
vt 0.2500 0.5000 0.0000
vt 0.0000 0.7500 0.0000
vt 0.0000 0.5000 0.0000
vt 0.7500 0.2500 0.0000
vt 1.0000 0.2500 0.0000
vt 0.7500 0.0000 0.0000
vt 0.5000 0.2500 0.0000
vt 0.2500 0.2500 0.0000
vt 0.2500 0.0000 0.0000
vt 0.0000 0.2500 0.0000
vt 0.7500 0.4500 0.0000
vt 0.5000 0.4500 0.0000
vt 0.7500 0.9000 0.0000
vt 0.5000 0.9000 0.0000
vt 1.0000 0.4500 0.0000
vt 1.0000 0.9000 0.0000
vt 0.2500 0.4500 0.0000
vt 0.0000 0.4500 0.0000
vt 0.2500 0.9000 0.0000
vt 0.0000 0.9000 0.0000
vt 0.7500 0.9500 0.0000
vt 0.5000 0.9500 0.0000
vt 1.0000 0.9500 0.0000
vt 0.2500 0.9500 0.0000
vt 0.0000 0.9500 0.0000
# 78 texture coords

g Teapot001
usemtl wire_028089177
s off
f 1/1/1 2/2/1 3/3/1 4/4/1 
f 4/4/2 3/3/2 5/5/2 6/6/2 
f 2/2/3 7/7/3 8/8/3 3/3/3 
f 3/3/4 8/8/4 9/9/4 5/5/4 
f 7/7/5 10/10/5 11/11/5 8/8/5 
f 8/8/6 11/11/6 12/12/6 9/9/6 
f 10/10/7 13/13/7 14/14/7 11/11/7 
f 11/11/8 14/14/8 15/15/8 12/12/8 
f 13/1/9 16/2/9 17/3/9 14/4/9 
f 14/4/10 17/3/10 18/5/10 15/6/10 
f 16/2/11 19/7/11 20/8/11 17/3/11 
f 17/3/12 20/8/12 21/9/12 18/5/12 
f 19/7/13 22/10/13 23/11/13 20/8/13 
f 20/8/14 23/11/14 24/12/14 21/9/14 
f 22/10/15 1/13/15 4/14/15 23/11/15 
f 23/11/16 4/14/16 6/15/16 24/12/16 
f 6/6/17 5/5/17 25/16/17 26/17/17 
f 26/17/18 25/16/18 27/18/18 28/19/18 
f 5/5/19 9/9/19 29/20/19 25/16/19 
f 25/16/20 29/20/20 30/21/20 27/18/20 
f 9/9/21 12/12/21 31/22/21 29/20/21 
f 29/20/22 31/22/22 32/23/22 30/21/22 
f 12/12/23 15/15/23 33/24/23 31/22/23 
f 31/22/24 33/24/24 34/25/24 32/23/24 
f 15/6/25 18/5/25 35/16/25 33/17/25 
f 33/17/26 35/16/26 36/18/26 34/19/26 
f 18/5/27 21/9/27 37/20/27 35/16/27 
f 35/16/28 37/20/28 38/21/28 36/18/28 
f 21/9/29 24/12/29 39/22/29 37/20/29 
f 37/20/30 39/22/30 40/23/30 38/21/30 
f 24/12/31 6/15/31 26/24/31 39/22/31 
f 39/22/32 26/24/32 28/25/32 40/23/32 
f 28/19/33 27/18/33 41/26/33 42/27/33 
f 42/27/34 41/26/34 43/28/34 44/29/34 
f 27/18/35 30/21/35 45/30/35 41/26/35 
f 41/26/36 45/30/36 46/31/36 43/28/36 
f 30/21/37 32/23/37 47/32/37 45/30/37 
f 45/30/38 47/32/38 48/33/38 46/31/38 
f 32/23/39 34/25/39 49/34/39 47/32/39 
f 47/32/40 49/34/40 50/35/40 48/33/40 
f 34/19/41 36/18/41 51/26/41 49/27/41 
f 49/27/42 51/26/42 52/28/42 50/29/42 
f 36/18/43 38/21/43 53/30/43 51/26/43 
f 51/26/44 53/30/44 54/31/44 52/28/44 
f 38/21/45 40/23/45 55/32/45 53/30/45 
f 53/30/46 55/32/46 56/33/46 54/31/46 
f 40/23/47 28/25/47 42/34/47 55/32/47 
f 55/32/48 42/34/48 44/35/48 56/33/48 
f 44/29/49 43/28/49 57/36/49 58/37/49 
f 58/37/50 57/36/50 59/38/50 
f 43/28/51 46/31/51 60/39/51 57/36/51 
f 57/36/52 60/39/52 59/40/52 
f 46/31/53 48/33/53 61/41/53 60/39/53 
f 60/39/54 61/41/54 59/42/54 
f 48/33/55 50/35/55 62/43/55 61/41/55 
f 61/41/56 62/43/56 59/44/56 
f 50/29/57 52/28/57 63/36/57 62/37/57 
f 62/37/58 63/36/58 59/38/58 
f 52/28/59 54/31/59 64/39/59 63/36/59 
f 63/36/60 64/39/60 59/40/60 
f 54/31/61 56/33/61 65/41/61 64/39/61 
f 64/39/62 65/41/62 59/42/62 
f 56/33/63 44/35/63 58/43/63 65/41/63 
f 65/41/64 58/43/64 59/44/64 
f 66/21/65 67/45/65 68/46/65 69/47/65 
f 69/47/66 68/46/66 70/48/66 71/49/66 
f 67/45/67 72/23/67 73/50/67 68/46/67 
f 68/46/68 73/50/68 74/51/68 70/48/68 
f 72/23/69 75/52/69 76/53/69 73/50/69 
f 73/50/70 76/53/70 77/54/70 74/51/70 
f 75/52/71 66/25/71 69/55/71 76/53/71 
f 76/53/72 69/55/72 71/56/72 77/54/72 
f 71/49/73 70/48/73 78/57/73 79/58/73 
f 79/58/74 78/57/74 80/59/74 34/40/74 
f 70/48/75 74/51/75 81/60/75 78/57/75 
f 78/57/76 81/60/76 82/42/76 80/59/76 
f 74/51/77 77/54/77 83/61/77 81/60/77 
f 81/60/78 83/61/78 84/62/78 82/42/78 
f 77/54/79 71/56/79 79/63/79 83/61/79 
f 83/61/80 79/63/80 34/44/80 84/62/80 
f 85/42/81 86/59/81 87/64/81 88/65/81 
f 88/65/82 87/64/82 89/66/82 90/67/82 
f 86/59/83 91/40/83 92/68/83 87/64/83 
f 87/64/84 92/68/84 93/69/84 89/66/84 
f 91/44/85 94/62/85 95/70/85 92/71/85 
f 92/71/86 95/70/86 96/72/86 93/73/86 
f 94/62/87 85/42/87 88/65/87 95/70/87 
f 95/70/88 88/65/88 90/67/88 96/72/88 
f 90/67/89 89/66/89 97/74/89 98/75/89 
f 98/75/90 97/74/90 99/45/90 100/23/90 
f 89/66/91 93/69/91 101/76/91 97/74/91 
f 97/74/92 101/76/92 102/21/92 99/45/92 
f 93/73/93 96/72/93 103/77/93 101/78/93 
f 101/78/94 103/77/94 104/52/94 102/25/94 
f 96/72/95 90/67/95 98/75/95 103/77/95 
f 103/77/96 98/75/96 100/23/96 104/52/96 
f 105/48/97 106/49/97 107/21/97 
f 106/49/98 105/48/98 108/59/98 109/40/98 
f 110/51/99 105/48/99 107/45/99 
f 105/48/100 110/51/100 111/42/100 108/59/100 
f 112/54/101 110/51/101 107/23/101 
f 110/51/102 112/54/102 113/62/102 111/42/102 
f 114/56/103 112/54/103 107/52/103 
f 112/54/104 114/56/104 115/44/104 113/62/104 
f 116/48/105 114/49/105 107/21/105 
f 114/49/106 116/48/106 117/59/106 115/40/106 
f 118/51/107 116/48/107 107/45/107 
f 116/48/108 118/51/108 119/42/108 117/59/108 
f 120/54/109 118/51/109 107/23/109 
f 118/51/110 120/54/110 121/62/110 119/42/110 
f 106/56/111 120/54/111 107/52/111 
f 120/54/112 106/56/112 109/44/112 121/62/112 
f 109/21/113 108/45/113 122/48/113 123/49/113 
f 123/49/114 122/48/114 124/59/114 125/40/114 
f 108/45/115 111/23/115 126/51/115 122/48/115 
f 122/48/116 126/51/116 127/42/116 124/59/116 
f 111/23/117 113/52/117 128/54/117 126/51/117 
f 126/51/118 128/54/118 129/62/118 127/42/118 
f 113/52/119 115/25/119 130/56/119 128/54/119 
f 128/54/120 130/56/120 131/44/120 129/62/120 
f 115/21/121 117/45/121 132/48/121 130/49/121 
f 130/49/122 132/48/122 133/59/122 131/40/122 
f 117/45/123 119/23/123 134/51/123 132/48/123 
f 132/48/124 134/51/124 135/42/124 133/59/124 
f 119/23/125 121/52/125 136/54/125 134/51/125 
f 134/51/126 136/54/126 137/62/126 135/42/126 
f 121/52/127 109/25/127 123/56/127 136/54/127 
f 136/54/128 123/56/128 125/44/128 137/62/128 
# 112 polygons - 16 triangles

