# 3ds Max Wavefront OBJ Exporter v0.97b - (c)2007 guruware
# File Created: 23.02.2015 21:54:15

mtllib Sample.mtl

#
# object Box001
#

v  -22.1906 53.4075 0.0000
v  -22.1906 54.4075 0.0000
v  -21.1906 54.4075 0.0000
v  -21.1906 53.4075 0.0000
v  -22.1906 53.4075 1.0000
v  -21.1906 53.4075 1.0000
v  -21.1906 54.4075 1.0000
v  -22.1906 54.4075 1.0000
v  -21.1906 55.4075 0.0000
v  -22.1906 55.4075 0.0000
v  -22.1906 55.4075 1.0000
v  -21.1906 55.4075 1.0000
v  -26.1906 54.4075 0.0000
v  -26.1906 53.4075 0.0000
v  -26.1906 53.4075 1.0000
v  -26.1906 54.4075 1.0000
v  -22.1906 54.4075 -1.0000
v  -22.1906 53.4075 -1.0000
v  -23.1906 53.4075 -1.0000
v  -23.1906 54.4075 -1.0000
v  -23.1906 53.4075 1.0000
v  -23.1906 53.4075 0.0000
v  -22.1906 53.4075 3.0000
v  -22.1906 54.4075 3.0000
v  -23.1906 54.4075 3.0000
v  -23.1906 53.4075 3.0000
v  -22.1906 57.4075 1.0000
v  -22.1906 57.4075 0.0000
v  -23.1906 57.4075 0.0000
v  -23.1906 57.4075 1.0000
v  -24.1906 53.4075 -1.0000
v  -24.1906 54.4075 -1.0000
v  -24.1906 53.4075 1.0000
v  -24.1906 53.4075 0.0000
v  -23.1906 54.4075 1.0000
v  -24.1906 54.4075 1.0000
v  -24.1906 57.4075 0.0000
v  -24.1906 57.4075 1.0000
v  -24.1906 54.4075 0.0000
v  -25.1906 53.4075 0.0000
v  -25.1906 54.4075 0.0000
v  -25.1906 53.4075 1.0000
v  -24.1906 53.4075 3.0000
v  -24.1906 54.4075 3.0000
v  -25.1906 54.4075 3.0000
v  -25.1906 53.4075 3.0000
v  -24.1906 55.4075 1.0000
v  -24.1906 55.4075 0.0000
v  -25.1906 55.4075 0.0000
v  -25.1906 55.4075 1.0000
v  -26.1906 54.4075 3.0000
v  -26.1906 53.4075 3.0000
v  -25.1906 54.4075 1.0000
v  -22.1906 54.4075 2.0000
v  -22.1906 53.4075 2.0000
v  -23.1906 57.4075 2.0000
v  -22.1906 57.4075 2.0000
v  -23.1906 53.4075 2.0000
v  -23.1906 54.4075 2.0000
v  -22.1906 56.4075 2.0000
v  -23.1906 56.4075 2.0000
v  -23.1906 56.4075 3.0000
v  -22.1906 56.4075 3.0000
v  -26.1906 54.4075 2.0000
v  -26.1906 53.4075 2.0000
v  -24.1906 53.4075 2.0000
v  -24.1906 54.4075 2.0000
v  -23.1906 53.4075 4.0000
v  -23.1906 54.4075 4.0000
v  -24.1906 54.4075 4.0000
v  -24.1906 53.4075 4.0000
v  -24.1906 56.4075 2.0000
v  -24.1906 56.4075 3.0000
v  -25.1906 53.4075 2.0000
v  -25.1906 54.4075 2.0000
v  -25.1906 54.4075 4.0000
v  -25.1906 53.4075 4.0000
v  -24.1906 55.4075 3.0000
v  -24.1906 55.4075 2.0000
v  -25.1906 55.4075 2.0000
v  -25.1906 55.4075 3.0000
v  -23.1906 54.4075 0.0000
v  -23.1906 56.4075 0.0000
v  -22.1906 56.4075 0.0000
v  -22.1906 56.4075 -1.0000
v  -23.1906 56.4075 -1.0000
v  -23.1906 55.4075 0.0000
v  -23.1906 55.4075 -1.0000
v  -24.1906 55.4075 -1.0000
v  -22.1906 55.4075 -1.0000
v  -23.1906 55.4075 1.0000
v  -23.1906 55.4075 2.0000
v  -23.1906 55.4075 3.0000
v  -22.1906 55.4075 3.0000
v  -22.1906 55.4075 2.0000
v  -22.1906 56.4075 1.0000
v  -24.1906 56.4075 0.0000
v  -24.1906 56.4075 1.0000
v  -23.1906 56.4075 1.0000
v  -24.1906 55.4075 4.0000
v  -23.1906 55.4075 4.0000
v  -23.1906 56.4075 4.0000
v  -24.1906 56.4075 4.0000
v  -22.1906 55.4075 4.0000
v  -22.1906 56.4075 4.0000
# 105 vertices

vn 0.0000 0.0000 -1.0000
vn 0.0000 -0.0000 1.0000
vn 0.0000 -1.0000 -0.0000
vn 1.0000 0.0000 -0.0000
vn 0.0000 1.0000 0.0000
vn -1.0000 0.0000 -0.0000
# 6 vertex normals

vt 1.0000 0.0000 0.0000
vt 1.0000 1.0000 0.0000
vt 0.0000 1.0000 0.0000
vt 0.0000 0.0000 0.0000
# 4 texture coords

g Box001
usemtl wire_225088199
s 2
f 1/1/1 2/2/1 3/3/1 4/4/1 
s 4
f 5/4/2 6/1/2 7/2/2 8/3/2 
s 8
f 1/4/3 4/1/3 6/2/3 5/3/3 
s 16
f 4/4/4 3/1/4 7/2/4 6/3/4 
s 32
f 9/4/5 10/1/5 11/2/5 12/3/5 
s 64
f 13/4/6 14/1/6 15/2/6 16/3/6 
s off
f 17/4/1 18/1/1 19/1/1 20/4/1 
f 1/1/3 5/2/3 21/2/3 22/1/3 
f 23/2/2 24/3/2 25/3/2 26/2/2 
f 27/3/5 28/4/5 29/4/5 30/3/5 
f 20/4/1 19/1/1 31/1/1 32/4/1 
f 22/1/3 21/2/3 33/2/3 34/1/3 
f 21/2/2 35/3/2 36/3/2 33/2/2 
f 30/3/5 29/4/5 37/4/5 38/3/5 
f 39/4/1 34/1/1 40/1/1 41/4/1 
f 34/1/3 33/2/3 42/2/3 40/1/3 
f 43/2/2 44/3/2 45/3/2 46/2/2 
f 47/3/5 48/4/5 49/4/5 50/3/5 
f 41/4/1 40/1/1 14/1/1 13/4/1 
f 40/1/3 42/2/3 15/2/3 14/1/3 
f 46/2/2 45/3/2 51/3/2 52/2/2 
f 53/3/5 41/4/5 13/4/5 16/3/5 
f 5/2/4 8/3/4 54/3/4 55/2/4 
f 27/3/5 30/3/5 56/3/5 57/3/5 
f 35/3/6 21/2/6 58/2/6 59/3/6 
f 21/2/3 5/2/3 55/2/3 58/2/3 
f 55/2/4 54/3/4 24/3/4 23/2/4 
f 60/3/5 61/3/5 62/3/5 63/3/5 
f 64/3/6 65/2/6 52/2/6 51/3/6 
f 58/2/3 55/2/3 23/2/3 26/2/3 
f 59/3/1 58/2/1 66/2/1 67/3/1 
f 58/2/3 26/2/3 43/2/3 66/2/3 
f 68/2/2 69/3/2 70/3/2 71/2/2 
f 62/3/5 61/3/5 72/3/5 73/3/5 
f 67/3/1 66/2/1 74/2/1 75/3/1 
f 66/2/3 43/2/3 46/2/3 74/2/3 
f 71/2/2 70/3/2 76/3/2 77/2/2 
f 78/3/5 79/3/5 80/3/5 81/3/5 
f 75/3/1 74/2/1 65/2/1 64/3/1 
f 74/2/3 46/2/3 52/2/3 65/2/3 
f 46/2/2 45/3/2 51/3/2 52/2/2 
f 45/3/5 75/3/5 64/3/5 51/3/5 
f 33/2/4 36/3/4 67/3/4 66/2/4 
f 47/3/5 50/3/5 80/3/5 79/3/5 
f 53/3/6 42/2/6 74/2/6 75/3/6 
f 42/2/3 33/2/3 66/2/3 74/2/3 
f 66/2/4 67/3/4 44/3/4 43/2/4 
f 67/3/5 75/3/5 45/3/5 44/3/5 
f 75/3/6 74/2/6 46/2/6 45/3/6 
f 74/2/3 66/2/3 43/2/3 46/2/3 
f 42/2/4 53/3/4 75/3/4 74/2/4 
f 53/3/5 16/3/5 64/3/5 75/3/5 
f 16/3/6 15/2/6 65/2/6 64/3/6 
f 15/2/3 42/2/3 74/2/3 65/2/3 
f 74/2/4 75/3/4 45/3/4 46/2/4 
f 75/3/5 64/3/5 51/3/5 45/3/5 
f 64/3/6 65/2/6 52/2/6 51/3/6 
f 65/2/3 74/2/3 46/2/3 52/2/3 
f 43/2/4 44/3/4 70/3/4 71/2/4 
f 44/3/5 45/3/5 76/3/5 70/3/5 
f 45/3/6 46/2/6 77/2/6 76/3/6 
f 46/2/3 43/2/3 71/2/3 77/2/3 
f 26/2/4 25/3/4 69/3/4 68/2/4 
f 25/3/5 44/3/5 70/3/5 69/3/5 
f 44/3/6 43/2/6 71/2/6 70/3/6 
f 43/2/3 26/2/3 68/2/3 71/2/3 
f 2/4/4 1/1/4 18/1/4 17/4/4 
f 1/1/3 22/1/3 19/1/3 18/1/3 
f 22/1/6 82/4/6 20/4/6 19/1/6 
f 83/4/5 84/4/5 85/4/5 86/4/5 
f 82/4/4 22/1/4 19/1/4 20/4/4 
f 22/1/3 34/1/3 31/1/3 19/1/3 
f 34/1/6 39/4/6 32/4/6 31/1/6 
f 48/4/5 87/4/5 88/4/5 89/4/5 
f 3/4/1 2/1/1 10/1/1 9/4/1 
f 2/4/4 17/4/4 90/4/4 10/4/4 
f 17/4/1 20/4/1 88/4/1 90/4/1 
f 20/4/6 82/4/6 87/4/6 88/4/6 
f 82/4/4 20/4/4 88/4/4 87/4/4 
f 20/4/1 32/4/1 89/4/1 88/4/1 
f 32/4/6 39/4/6 48/4/6 89/4/6 
f 39/4/1 41/4/1 49/4/1 48/4/1 
f 41/4/6 53/3/6 50/3/6 49/4/6 
f 53/3/6 75/3/6 80/3/6 50/3/6 
f 75/3/2 67/3/2 79/3/2 80/3/2 
f 67/3/4 36/3/4 47/3/4 79/3/4 
f 36/3/2 35/3/2 91/3/2 47/3/2 
f 35/3/6 59/3/6 92/3/6 91/3/6 
f 59/3/1 67/3/1 79/3/1 92/3/1 
f 67/3/1 75/3/1 80/3/1 79/3/1 
f 75/3/6 45/3/6 81/3/6 80/3/6 
f 45/3/2 44/3/2 78/3/2 81/3/2 
f 44/3/2 25/3/2 93/3/2 78/3/2 
f 25/3/2 24/3/2 94/3/2 93/3/2 
f 24/3/4 54/3/4 95/3/4 94/3/4 
f 54/3/4 8/3/4 11/3/4 95/3/4 
f 8/2/2 7/3/2 12/3/2 11/2/2 
f 7/3/4 3/4/4 9/4/4 12/3/4 
f 11/3/4 10/4/4 84/4/4 96/3/4 
f 10/4/4 90/4/4 85/4/4 84/4/4 
f 90/4/1 88/4/1 86/4/1 85/4/1 
f 88/4/6 87/4/6 83/4/6 86/4/6 
f 87/4/1 48/4/1 97/4/1 83/4/1 
f 48/4/6 47/3/6 98/3/6 97/4/6 
f 47/3/2 91/3/2 99/3/2 98/3/2 
f 91/3/6 92/3/6 61/3/6 99/3/6 
f 92/3/1 79/3/1 72/3/1 61/3/1 
f 79/3/6 78/3/6 73/3/6 72/3/6 
f 100/3/2 101/3/2 102/3/2 103/3/2 
f 101/3/2 104/3/2 105/3/2 102/3/2 
f 94/3/4 95/3/4 60/3/4 63/3/4 
f 95/3/4 11/3/4 96/3/4 60/3/4 
f 84/4/1 83/4/1 29/4/1 28/4/1 
f 83/4/1 97/4/1 37/4/1 29/4/1 
f 97/4/6 98/3/6 38/3/6 37/4/6 
f 98/3/2 99/3/2 30/3/2 38/3/2 
f 99/3/6 61/3/6 56/3/6 30/3/6 
f 61/3/2 60/3/2 57/3/2 56/3/2 
f 60/3/4 96/3/4 27/3/4 57/3/4 
f 96/3/4 84/4/4 28/4/4 27/3/4 
f 78/3/3 93/3/3 101/3/3 100/3/3 
f 93/3/3 94/3/3 104/3/3 101/3/3 
f 94/3/4 63/3/4 105/3/4 104/3/4 
f 63/3/5 62/3/5 102/3/5 105/3/5 
f 62/3/5 73/3/5 103/3/5 102/3/5 
f 73/3/6 78/3/6 100/3/6 103/3/6 
# 126 polygons

