# 3ds Max Wavefront OBJ Exporter v0.97b - (c)2007 guruware
# File Created: 26.03.2015 01:31:01

mtllib sample3.mtl

#
# object Box001
#

v  20.0741 0.0000 4.0276
v  20.0741 0.0000 3.0276
v  21.0741 0.0000 3.0276
v  21.0741 0.0000 4.0276
v  20.0741 6.9994 4.0276
v  21.0741 6.9994 4.0276
v  21.0741 6.9994 3.0276
v  20.0741 6.9994 3.0276
v  21.0741 1.0000 4.0276
v  20.0741 1.0000 4.0276
v  25.0737 0.0000 4.0276
v  25.0737 0.0000 3.0276
v  25.0737 1.0000 3.0276
v  25.0737 1.0000 4.0276
v  20.0741 1.0000 3.0276
v  21.0741 1.0000 3.0276
v  21.0741 1.9999 4.0276
v  20.0741 1.9999 4.0276
v  21.0741 1.9999 3.0276
v  20.0741 1.9999 3.0276
v  20.0741 1.9999 6.0274
v  21.0741 1.9999 6.0274
v  21.0741 2.9998 6.0274
v  20.0741 2.9998 6.0274
v  21.0741 2.9998 3.0276
v  21.0741 2.9998 4.0276
v  21.0741 1.9999 -0.9720
v  20.0741 1.9999 -0.9720
v  20.0741 2.9998 -0.9720
v  21.0741 2.9998 -0.9720
v  20.0741 2.9998 4.0276
v  20.0741 2.9998 3.0276
v  20.0741 2.9998 7.0274
v  21.0741 2.9998 7.0274
v  21.0741 3.9997 7.0274
v  20.0741 3.9997 7.0274
v  21.0741 3.9997 3.0276
v  21.0741 3.9997 4.0276
v  20.0741 3.9997 3.0276
v  20.0741 3.9997 4.0276
v  21.0741 4.9996 4.0276
v  20.0741 4.9996 4.0276
v  21.0741 4.9996 3.0276
v  20.0741 4.9996 3.0276
v  16.0745 3.9997 3.0276
v  16.0745 3.9997 4.0276
v  16.0745 4.9996 4.0276
v  16.0745 4.9996 3.0276
v  21.0741 5.9995 4.0276
v  20.0741 5.9995 4.0276
v  21.0741 5.9995 3.0276
v  20.0741 5.9995 3.0276
v  20.0741 5.9995 8.0272
v  21.0741 5.9995 8.0272
v  21.0741 6.9994 8.0272
v  20.0741 6.9994 8.0272
v  22.0740 0.0000 3.0276
v  22.0740 0.0000 4.0276
v  22.0740 1.0000 3.0276
v  22.0740 1.0000 4.0276
v  20.0741 1.9999 2.0277
v  21.0741 1.9999 2.0277
v  20.0741 2.9998 2.0277
v  21.0741 2.9998 2.0277
v  19.0742 3.9997 4.0276
v  19.0742 3.9997 3.0276
v  19.0742 4.9996 4.0276
v  19.0742 4.9996 3.0276
v  21.0741 5.9995 5.0275
v  20.0741 5.9995 5.0275
v  21.0741 6.9994 5.0275
v  20.0741 6.9994 5.0275
v  23.0739 0.0000 3.0276
v  23.0739 0.0000 4.0276
v  23.0739 1.0000 3.0276
v  22.0740 6.0000 3.0276
v  22.0740 6.0000 4.0276
v  23.0739 6.0000 4.0276
v  23.0739 6.0000 3.0276
v  23.0739 1.0000 4.0276
v  20.0741 1.9999 1.0278
v  21.0741 1.9999 1.0278
v  20.0741 2.9998 1.0278
v  21.0741 2.9998 1.0278
v  18.0743 3.9997 4.0276
v  18.0743 3.9997 3.0276
v  18.0743 4.9996 4.0276
v  18.0743 4.9996 3.0276
v  21.0741 5.9995 6.0274
v  20.0741 5.9995 6.0274
v  21.0741 6.9994 6.0274
v  20.0741 6.9994 6.0274
v  24.0738 0.0000 3.0276
v  24.0738 0.0000 4.0276
v  24.0738 1.0000 3.0276
v  24.0738 1.0000 4.0276
v  20.0741 1.9999 0.0279
v  21.0741 1.9999 0.0279
v  20.0741 2.9998 0.0279
v  21.0741 2.9998 0.0279
v  17.0744 3.9997 4.0276
v  17.0744 3.9997 3.0276
v  17.0744 4.9996 4.0276
v  17.0744 4.9996 3.0276
v  21.0741 5.9995 7.0273
v  20.0741 5.9995 7.0273
v  23.0741 5.9995 6.0274
v  23.0741 6.9994 6.0274
v  23.0741 6.9994 7.0273
v  23.0741 5.9995 7.0273
v  20.0741 6.9994 7.0273
v  21.0741 6.9994 7.0273
v  24.0738 6.0000 3.0276
v  24.0738 6.0000 4.0276
v  25.0737 6.0000 4.0276
v  25.0737 6.0000 3.0276
v  21.0741 1.9999 5.0275
v  20.0741 1.9999 5.0275
v  21.0741 2.9998 5.0275
v  21.0741 3.9997 5.0275
v  20.0741 3.9997 5.0275
v  20.0741 2.9998 5.0275
v  22.0741 1.9999 5.0275
v  22.0741 2.9998 5.0275
v  22.0741 2.9998 6.0274
v  22.0741 1.9999 6.0274
v  22.0741 3.9997 5.0275
v  22.0741 3.9997 6.0274
v  21.0741 4.9997 5.0275
v  20.0741 4.9997 5.0275
v  20.0741 4.9997 6.0274
v  21.0741 4.9997 6.0274
v  19.0741 3.9997 5.0275
v  19.0741 2.9998 5.0275
v  19.0741 2.9998 6.0274
v  19.0741 3.9997 6.0274
v  19.0741 1.9999 5.0275
v  19.0741 1.9999 6.0274
v  21.0741 3.9997 6.0274
v  20.0741 3.9997 6.0274
v  22.0740 2.0000 4.0276
v  22.0740 2.0000 3.0276
v  23.0739 2.0000 4.0276
v  23.0739 2.0000 3.0276
v  24.0738 2.0000 4.0276
v  24.0738 2.0000 3.0276
v  25.0737 2.0000 4.0276
v  25.0737 2.0000 3.0276
v  22.0740 3.0000 4.0276
v  22.0740 3.0000 3.0276
v  23.0739 3.0000 4.0276
v  23.0739 3.0000 3.0276
v  24.0738 3.0000 4.0276
v  24.0738 3.0000 3.0276
v  25.0737 3.0000 4.0276
v  25.0737 3.0000 3.0276
v  22.0740 4.0000 4.0276
v  22.0740 4.0000 3.0276
v  23.0739 4.0000 4.0276
v  23.0739 4.0000 3.0276
v  24.0738 4.0000 4.0276
v  24.0738 4.0000 3.0276
v  25.0737 4.0000 4.0276
v  25.0737 4.0000 3.0276
v  22.0740 5.0000 4.0276
v  22.0740 5.0000 3.0276
v  23.0739 5.0000 4.0276
v  23.0739 5.0000 3.0276
v  24.0738 5.0000 4.0276
v  24.0738 5.0000 3.0276
v  25.0737 5.0000 4.0276
v  25.0737 5.0000 3.0276
v  22.0740 5.0000 7.0276
v  23.0739 5.0000 7.0276
v  23.0739 6.0000 7.0276
v  22.0740 6.0000 7.0276
v  24.0739 5.0000 4.0276
v  24.0739 5.0000 3.0276
v  24.0739 6.0000 3.0276
v  24.0739 6.0000 4.0276
v  22.0741 6.9994 6.0274
v  22.0741 5.9995 6.0274
v  22.0741 6.9994 7.0273
v  22.0741 5.9995 7.0273
v  23.0739 5.0000 5.0276
v  22.0740 5.0000 5.0276
v  23.0739 6.0000 5.0276
v  22.0740 6.0000 5.0276
v  23.0739 5.0000 6.0276
v  22.0740 5.0000 6.0276
v  23.0739 6.0000 6.0276
v  22.0740 6.0000 6.0276
# 192 vertices

vn 0.0000 -1.0000 -0.0000
vn 0.0000 1.0000 -0.0000
vn 0.0000 0.0000 1.0000
vn 1.0000 0.0000 -0.0000
vn 0.0000 0.0000 -1.0000
vn -1.0000 0.0000 -0.0000
# 6 vertex normals

vt 1.0000 0.0000 0.0000
vt 1.0000 1.0000 0.0000
vt 0.0000 1.0000 0.0000
vt 0.0000 0.0000 0.0000
# 4 texture coords

g Box001
usemtl wire_153228214
s 2
f 1/1/1 2/2/1 3/3/1 
f 3/3/1 4/4/1 1/1/1 
s 4
f 5/4/2 6/1/2 7/2/2 
f 7/2/2 8/3/2 5/4/2 
s 8
f 1/4/3 4/1/3 9/2/3 
f 9/2/3 10/3/3 1/4/3 
s 16
f 11/4/4 12/1/4 13/2/4 
f 13/2/4 14/3/4 11/4/4 
s 32
f 3/4/5 2/1/5 15/2/5 
f 15/2/5 16/3/5 3/4/5 
s 64
f 2/4/6 1/1/6 10/2/6 
f 10/2/6 15/3/6 2/4/6 
s off
f 10/4/3 9/1/3 17/1/3 
f 17/1/3 18/4/3 10/4/3 
f 9/1/4 16/2/4 19/2/4 
f 19/2/4 17/1/4 9/1/4 
f 16/2/5 15/3/5 20/3/5 
f 20/3/5 19/2/5 16/2/5 
f 15/3/6 10/4/6 18/4/6 
f 18/4/6 20/3/6 15/3/6 
f 21/4/3 22/1/3 23/1/3 
f 23/1/3 24/4/3 21/4/3 
f 17/1/4 19/2/4 25/2/4 
f 25/2/4 26/1/4 17/1/4 
f 27/2/5 28/3/5 29/3/5 
f 29/3/5 30/2/5 27/2/5 
f 20/3/6 18/4/6 31/4/6 
f 31/4/6 32/3/6 20/3/6 
f 33/4/3 34/1/3 35/1/3 
f 35/1/3 36/4/3 33/4/3 
f 26/1/4 25/2/4 37/2/4 
f 37/2/4 38/1/4 26/1/4 
f 25/2/5 32/3/5 39/3/5 
f 39/3/5 37/2/5 25/2/5 
f 32/3/6 31/4/6 40/4/6 
f 40/4/6 39/3/6 32/3/6 
f 40/4/3 38/1/3 41/1/3 
f 41/1/3 42/4/3 40/4/3 
f 38/1/4 37/2/4 43/2/4 
f 43/2/4 41/1/4 38/1/4 
f 37/2/5 39/3/5 44/3/5 
f 44/3/5 43/2/5 37/2/5 
f 45/3/6 46/4/6 47/4/6 
f 47/4/6 48/3/6 45/3/6 
f 42/4/3 41/1/3 49/1/3 
f 49/1/3 50/4/3 42/4/3 
f 41/1/4 43/2/4 51/2/4 
f 51/2/4 49/1/4 41/1/4 
f 43/2/5 44/3/5 52/3/5 
f 52/3/5 51/2/5 43/2/5 
f 44/3/6 42/4/6 50/4/6 
f 50/4/6 52/3/6 44/3/6 
f 53/4/3 54/1/3 55/1/3 
f 55/1/3 56/4/3 53/4/3 
f 49/1/4 51/2/4 7/2/4 
f 7/2/4 6/1/4 49/1/4 
f 51/2/5 52/3/5 8/3/5 
f 8/3/5 7/2/5 51/2/5 
f 52/3/6 50/4/6 5/4/6 
f 5/4/6 8/3/6 52/3/6 
f 4/4/1 3/1/1 57/1/1 
f 57/1/1 58/4/1 4/4/1 
f 3/1/5 16/2/5 59/2/5 
f 59/2/5 57/1/5 3/1/5 
f 16/2/2 9/3/2 60/3/2 
f 60/3/2 59/2/2 16/2/2 
f 9/3/3 4/4/3 58/4/3 
f 58/4/3 60/3/3 9/3/3 
f 19/2/1 20/3/1 61/3/1 
f 61/3/1 62/2/1 19/2/1 
f 20/3/6 32/3/6 63/3/6 
f 63/3/6 61/3/6 20/3/6 
f 32/3/2 25/2/2 64/2/2 
f 64/2/2 63/3/2 32/3/2 
f 25/2/4 19/2/4 62/2/4 
f 62/2/4 64/2/4 25/2/4 
f 39/3/1 40/4/1 65/4/1 
f 65/4/1 66/3/1 39/3/1 
f 40/4/3 42/4/3 67/4/3 
f 67/4/3 65/4/3 40/4/3 
f 42/4/2 44/3/2 68/3/2 
f 68/3/2 67/4/2 42/4/2 
f 44/3/5 39/3/5 66/3/5 
f 66/3/5 68/3/5 44/3/5 
f 50/4/1 49/1/1 69/1/1 
f 69/1/1 70/4/1 50/4/1 
f 49/1/4 6/1/4 71/1/4 
f 71/1/4 69/1/4 49/1/4 
f 6/1/2 5/4/2 72/4/2 
f 72/4/2 71/1/2 6/1/2 
f 5/4/6 50/4/6 70/4/6 
f 70/4/6 72/4/6 5/4/6 
f 58/4/1 57/1/1 73/1/1 
f 73/1/1 74/4/1 58/4/1 
f 57/1/5 59/2/5 75/2/5 
f 75/2/5 73/1/5 57/1/5 
f 76/2/2 77/3/2 78/3/2 
f 78/3/2 79/2/2 76/2/2 
f 60/3/3 58/4/3 74/4/3 
f 74/4/3 80/3/3 60/3/3 
f 62/2/1 61/3/1 81/3/1 
f 81/3/1 82/2/1 62/2/1 
f 61/3/6 63/3/6 83/3/6 
f 83/3/6 81/3/6 61/3/6 
f 63/3/2 64/2/2 84/2/2 
f 84/2/2 83/3/2 63/3/2 
f 64/2/4 62/2/4 82/2/4 
f 82/2/4 84/2/4 64/2/4 
f 66/3/1 65/4/1 85/4/1 
f 85/4/1 86/3/1 66/3/1 
f 65/4/3 67/4/3 87/4/3 
f 87/4/3 85/4/3 65/4/3 
f 67/4/2 68/3/2 88/3/2 
f 88/3/2 87/4/2 67/4/2 
f 68/3/5 66/3/5 86/3/5 
f 86/3/5 88/3/5 68/3/5 
f 70/4/1 69/1/1 89/1/1 
f 89/1/1 90/4/1 70/4/1 
f 69/1/4 71/1/4 91/1/4 
f 91/1/4 89/1/4 69/1/4 
f 71/1/2 72/4/2 92/4/2 
f 92/4/2 91/1/2 71/1/2 
f 72/4/6 70/4/6 90/4/6 
f 90/4/6 92/4/6 72/4/6 
f 74/4/1 73/1/1 93/1/1 
f 93/1/1 94/4/1 74/4/1 
f 73/1/5 75/2/5 95/2/5 
f 95/2/5 93/1/5 73/1/5 
f 75/2/2 80/3/2 96/3/2 
f 96/3/2 95/2/2 75/2/2 
f 80/3/3 74/4/3 94/4/3 
f 94/4/3 96/3/3 80/3/3 
f 82/2/1 81/3/1 97/3/1 
f 97/3/1 98/2/1 82/2/1 
f 81/3/6 83/3/6 99/3/6 
f 99/3/6 97/3/6 81/3/6 
f 83/3/2 84/2/2 100/2/2 
f 100/2/2 99/3/2 83/3/2 
f 84/2/4 82/2/4 98/2/4 
f 98/2/4 100/2/4 84/2/4 
f 86/3/1 85/4/1 101/4/1 
f 101/4/1 102/3/1 86/3/1 
f 85/4/3 87/4/3 103/4/3 
f 103/4/3 101/4/3 85/4/3 
f 87/4/2 88/3/2 104/3/2 
f 104/3/2 103/4/2 87/4/2 
f 88/3/5 86/3/5 102/3/5 
f 102/3/5 104/3/5 88/3/5 
f 90/4/1 89/1/1 105/1/1 
f 105/1/1 106/4/1 90/4/1 
f 107/1/4 108/1/4 109/1/4 
f 109/1/4 110/1/4 107/1/4 
f 91/1/2 92/4/2 111/4/2 
f 111/4/2 112/1/2 91/1/2 
f 92/4/6 90/4/6 106/4/6 
f 106/4/6 111/4/6 92/4/6 
f 94/4/1 93/1/1 12/1/1 
f 12/1/1 11/4/1 94/4/1 
f 93/1/5 95/2/5 13/2/5 
f 13/2/5 12/1/5 93/1/5 
f 113/2/2 114/3/2 115/3/2 
f 115/3/2 116/2/2 113/2/2 
f 96/3/3 94/4/3 11/4/3 
f 11/4/3 14/3/3 96/3/3 
f 98/2/1 97/3/1 28/3/1 
f 28/3/1 27/2/1 98/2/1 
f 97/3/6 99/3/6 29/3/6 
f 29/3/6 28/3/6 97/3/6 
f 99/3/2 100/2/2 30/2/2 
f 30/2/2 29/3/2 99/3/2 
f 100/2/4 98/2/4 27/2/4 
f 27/2/4 30/2/4 100/2/4 
f 102/3/1 101/4/1 46/4/1 
f 46/4/1 45/3/1 102/3/1 
f 101/4/3 103/4/3 47/4/3 
f 47/4/3 46/4/3 101/4/3 
f 103/4/2 104/3/2 48/3/2 
f 48/3/2 47/4/2 103/4/2 
f 104/3/5 102/3/5 45/3/5 
f 45/3/5 48/3/5 104/3/5 
f 106/4/1 105/1/1 54/1/1 
f 54/1/1 53/4/1 106/4/1 
f 105/1/4 112/1/4 55/1/4 
f 55/1/4 54/1/4 105/1/4 
f 112/1/2 111/4/2 56/4/2 
f 56/4/2 55/1/2 112/1/2 
f 111/4/6 106/4/6 53/4/6 
f 53/4/6 56/4/6 111/4/6 
f 18/4/1 17/1/1 117/1/1 
f 117/1/1 118/4/1 18/4/1 
f 17/1/4 26/1/4 119/1/4 
f 119/1/4 117/1/4 17/1/4 
f 26/1/4 38/1/4 120/1/4 
f 120/1/4 119/1/4 26/1/4 
f 38/1/2 40/4/2 121/4/2 
f 121/4/2 120/1/2 38/1/2 
f 40/4/6 31/4/6 122/4/6 
f 122/4/6 121/4/6 40/4/6 
f 31/4/6 18/4/6 118/4/6 
f 118/4/6 122/4/6 31/4/6 
f 118/4/1 117/1/1 22/1/1 
f 22/1/1 21/4/1 118/4/1 
f 123/1/4 124/1/4 125/1/4 
f 125/1/4 126/1/4 123/1/4 
f 124/1/4 127/1/4 128/1/4 
f 128/1/4 125/1/4 124/1/4 
f 129/1/2 130/4/2 131/4/2 
f 131/4/2 132/1/2 129/1/2 
f 133/4/6 134/4/6 135/4/6 
f 135/4/6 136/4/6 133/4/6 
f 134/4/6 137/4/6 138/4/6 
f 138/4/6 135/4/6 134/4/6 
f 117/1/5 119/1/5 124/1/5 
f 124/1/5 123/1/5 117/1/5 
f 119/1/5 120/1/5 127/1/5 
f 127/1/5 124/1/5 119/1/5 
f 120/1/2 139/1/2 128/1/2 
f 128/1/2 127/1/2 120/1/2 
f 139/1/3 23/1/3 125/1/3 
f 125/1/3 128/1/3 139/1/3 
f 23/1/3 22/1/3 126/1/3 
f 126/1/3 125/1/3 23/1/3 
f 22/1/1 117/1/1 123/1/1 
f 123/1/1 126/1/1 22/1/1 
f 121/4/5 122/4/5 134/4/5 
f 134/4/5 133/4/5 121/4/5 
f 122/4/5 118/4/5 137/4/5 
f 137/4/5 134/4/5 122/4/5 
f 118/4/1 21/4/1 138/4/1 
f 138/4/1 137/4/1 118/4/1 
f 21/4/3 24/4/3 135/4/3 
f 135/4/3 138/4/3 21/4/3 
f 24/4/3 140/4/3 136/4/3 
f 136/4/3 135/4/3 24/4/3 
f 140/4/2 121/4/2 133/4/2 
f 133/4/2 136/4/2 140/4/2 
f 120/1/5 121/4/5 130/4/5 
f 130/4/5 129/1/5 120/1/5 
f 121/4/6 140/4/6 131/4/6 
f 131/4/6 130/4/6 121/4/6 
f 140/4/3 139/1/3 132/1/3 
f 132/1/3 131/4/3 140/4/3 
f 139/1/4 120/1/4 129/1/4 
f 129/1/4 132/1/4 139/1/4 
f 24/4/1 23/1/1 34/1/1 
f 34/1/1 33/4/1 24/4/1 
f 23/1/4 139/1/4 35/1/4 
f 35/1/4 34/1/4 23/1/4 
f 139/1/2 140/4/2 36/4/2 
f 36/4/2 35/1/2 139/1/2 
f 140/4/6 24/4/6 33/4/6 
f 33/4/6 36/4/6 140/4/6 
f 59/2/6 60/3/6 141/3/6 
f 141/3/6 142/2/6 59/2/6 
f 60/3/3 80/3/3 143/3/3 
f 143/3/3 141/3/3 60/3/3 
f 80/3/4 75/2/4 144/2/4 
f 144/2/4 143/3/4 80/3/4 
f 75/2/5 59/2/5 142/2/5 
f 142/2/5 144/2/5 75/2/5 
f 95/2/6 96/3/6 145/3/6 
f 145/3/6 146/2/6 95/2/6 
f 96/3/3 14/3/3 147/3/3 
f 147/3/3 145/3/3 96/3/3 
f 14/3/4 13/2/4 148/2/4 
f 148/2/4 147/3/4 14/3/4 
f 13/2/5 95/2/5 146/2/5 
f 146/2/5 148/2/5 13/2/5 
f 142/2/6 141/3/6 149/3/6 
f 149/3/6 150/2/6 142/2/6 
f 141/3/3 143/3/3 151/3/3 
f 151/3/3 149/3/3 141/3/3 
f 143/3/4 144/2/4 152/2/4 
f 152/2/4 151/3/4 143/3/4 
f 144/2/5 142/2/5 150/2/5 
f 150/2/5 152/2/5 144/2/5 
f 146/2/6 145/3/6 153/3/6 
f 153/3/6 154/2/6 146/2/6 
f 145/3/3 147/3/3 155/3/3 
f 155/3/3 153/3/3 145/3/3 
f 147/3/4 148/2/4 156/2/4 
f 156/2/4 155/3/4 147/3/4 
f 148/2/5 146/2/5 154/2/5 
f 154/2/5 156/2/5 148/2/5 
f 150/2/6 149/3/6 157/3/6 
f 157/3/6 158/2/6 150/2/6 
f 149/3/3 151/3/3 159/3/3 
f 159/3/3 157/3/3 149/3/3 
f 151/3/4 152/2/4 160/2/4 
f 160/2/4 159/3/4 151/3/4 
f 152/2/5 150/2/5 158/2/5 
f 158/2/5 160/2/5 152/2/5 
f 154/2/6 153/3/6 161/3/6 
f 161/3/6 162/2/6 154/2/6 
f 153/3/3 155/3/3 163/3/3 
f 163/3/3 161/3/3 153/3/3 
f 155/3/4 156/2/4 164/2/4 
f 164/2/4 163/3/4 155/3/4 
f 156/2/5 154/2/5 162/2/5 
f 162/2/5 164/2/5 156/2/5 
f 158/2/6 157/3/6 165/3/6 
f 165/3/6 166/2/6 158/2/6 
f 157/3/3 159/3/3 167/3/3 
f 167/3/3 165/3/3 157/3/3 
f 159/3/4 160/2/4 168/2/4 
f 168/2/4 167/3/4 159/3/4 
f 160/2/5 158/2/5 166/2/5 
f 166/2/5 168/2/5 160/2/5 
f 162/2/6 161/3/6 169/3/6 
f 169/3/6 170/2/6 162/2/6 
f 161/3/3 163/3/3 171/3/3 
f 171/3/3 169/3/3 161/3/3 
f 163/3/4 164/2/4 172/2/4 
f 172/2/4 171/3/4 163/3/4 
f 164/2/5 162/2/5 170/2/5 
f 170/2/5 172/2/5 164/2/5 
f 166/2/6 165/3/6 77/3/6 
f 77/3/6 76/2/6 166/2/6 
f 173/3/3 174/3/3 175/3/3 
f 175/3/3 176/3/3 173/3/3 
f 177/3/4 178/2/4 179/2/4 
f 179/2/4 180/3/4 177/3/4 
f 168/2/5 166/2/5 76/2/5 
f 76/2/5 79/2/5 168/2/5 
f 170/2/6 169/3/6 114/3/6 
f 114/3/6 113/2/6 170/2/6 
f 169/3/3 171/3/3 115/3/3 
f 115/3/3 114/3/3 169/3/3 
f 171/3/4 172/2/4 116/2/4 
f 116/2/4 115/3/4 171/3/4 
f 172/2/5 170/2/5 113/2/5 
f 113/2/5 116/2/5 172/2/5 
f 89/1/5 91/1/5 181/1/5 
f 181/1/5 182/1/5 89/1/5 
f 91/1/2 112/1/2 183/1/2 
f 183/1/2 181/1/2 91/1/2 
f 112/1/3 105/1/3 184/1/3 
f 184/1/3 183/1/3 112/1/3 
f 105/1/1 89/1/1 182/1/1 
f 182/1/1 184/1/1 105/1/1 
f 182/1/5 181/1/5 108/1/5 
f 108/1/5 107/1/5 182/1/5 
f 181/1/2 183/1/2 109/1/2 
f 109/1/2 108/1/2 181/1/2 
f 183/1/3 184/1/3 110/1/3 
f 110/1/3 109/1/3 183/1/3 
f 184/1/1 182/1/1 107/1/1 
f 107/1/1 110/1/1 184/1/1 
f 165/3/1 167/3/1 185/3/1 
f 185/3/1 186/3/1 165/3/1 
f 167/3/4 78/3/4 187/3/4 
f 187/3/4 185/3/4 167/3/4 
f 78/3/2 77/3/2 188/3/2 
f 188/3/2 187/3/2 78/3/2 
f 77/3/6 165/3/6 186/3/6 
f 186/3/6 188/3/6 77/3/6 
f 186/3/1 185/3/1 189/3/1 
f 189/3/1 190/3/1 186/3/1 
f 185/3/4 187/3/4 191/3/4 
f 191/3/4 189/3/4 185/3/4 
f 187/3/2 188/3/2 192/3/2 
f 192/3/2 191/3/2 187/3/2 
f 188/3/6 186/3/6 190/3/6 
f 190/3/6 192/3/6 188/3/6 
f 190/3/1 189/3/1 174/3/1 
f 174/3/1 173/3/1 190/3/1 
f 189/3/4 191/3/4 175/3/4 
f 175/3/4 174/3/4 189/3/4 
f 191/3/2 192/3/2 176/3/2 
f 176/3/2 175/3/2 191/3/2 
f 192/3/6 190/3/6 173/3/6 
f 173/3/6 176/3/6 192/3/6 
f 167/3/1 168/2/1 178/2/1 
f 178/2/1 177/3/1 167/3/1 
f 168/2/5 79/2/5 179/2/5 
f 179/2/5 178/2/5 168/2/5 
f 79/2/2 78/3/2 180/3/2 
f 180/3/2 179/2/2 79/2/2 
f 78/3/3 167/3/3 177/3/3 
f 177/3/3 180/3/3 78/3/3 
# 380 faces

